<?xml version="1.0" standalone="no"?><!DOCTYPE svg PUBLIC "-//W3C//DTD SVG 1.1//EN" "http://www.w3.org/Graphics/SVG/1.1/DTD/svg11.dtd"><svg t="1693042886028" class="icon" viewBox="0 0 1024 1024" version="1.1" xmlns="http://www.w3.org/2000/svg" p-id="2576" xmlns:xlink="http://www.w3.org/1999/xlink" width="200" height="200"><path d="M904.544 136.544a33.248 33.248 0 0 0-17.056-17.056c-93.856-42.656-285.856-46.944-469.344 145.056-145.056-81.056-268.8 12.8-315.744 76.8-8.544 8.544-8.544 21.344-4.256 29.856 4.256 12.8 12.8 17.056 25.6 21.344h8.544c59.744 8.544 106.656 17.056 136.544 72.544-4.256 8.544-8.544 17.056-17.056 25.6-4.256 8.544-4.256 21.344 0 29.856s12.8 17.056 21.344 17.056c17.056 4.256 72.544 21.344 128 76.8s76.8 110.944 76.8 128c0 8.544 8.544 17.056 17.056 21.344 2.144 0 4.256 1.056 6.4 2.144s4.256 2.144 6.4 2.144c4.256 0 8.544 0 17.056-4.256 3.168-1.6 6.368-3.776 9.76-6.112 5.728-3.936 12.064-8.288 20.128-10.976 52.928 28.512 63.136 76.448 75.072 132.704l1.728 8.096v8.544c0 12.8 8.544 21.344 21.344 25.6 2.144 0 4.256 1.056 6.4 2.144s4.256 2.144 6.4 2.144c8.544 0 12.8 0 17.056-4.256 64-46.944 157.856-170.656 76.8-315.744 192-187.744 187.744-375.456 145.056-469.344zM192 341.344c38.4-29.856 102.4-59.744 179.2-25.6-21.344 25.6-42.656 55.456-64 89.6-34.144-38.4-72.544-55.456-115.2-64z m260.256 230.4c-42.656-42.656-89.6-68.256-123.744-81.056 192-332.8 418.144-354.144 520.544-315.744 38.4 106.656 17.056 328.544-315.744 520.544-12.8-34.144-38.4-81.056-81.056-123.744zM686.944 832c-8.544-42.656-29.856-81.056-68.256-115.2 21.792-13.632 41.856-28.992 61.28-43.872 11.008-8.416 21.792-16.704 32.608-24.416 34.144 76.8 4.256 145.056-25.6 183.456z m-320.032-85.344c-12.8 12.8-55.456 42.656-115.2 29.856-12.8-55.456 17.056-102.4 29.856-115.2s12.8-34.144 0-46.944c-12.8-12.8-34.144-12.8-46.944 0-29.856 25.6-72.544 102.4-42.656 196.256 4.256 8.544 12.8 17.056 21.344 21.344 21.344 8.544 42.656 8.544 64 8.544 64 0 110.944-29.856 132.256-51.2 12.8-12.8 12.8-34.144 0-46.944s-29.856-8.544-42.656 4.256zM665.568 256a105.6 105.6 0 0 1 106.656 106.656c0 55.456-46.944 106.656-106.656 106.656s-106.656-46.944-106.656-106.656A105.6 105.6 0 0 1 665.568 256z m-42.656 106.656c0 25.6 17.056 42.656 42.656 42.656 21.344 0 42.656-17.056 42.656-42.656S691.168 320 665.568 320c-25.6 0-42.656 17.056-42.656 42.656z" p-id="2577"></path></svg>